<svg width="72" height="72" viewBox="0 0 72 72" fill="none" xmlns="http://www.w3.org/2000/svg">
<mask id="mask0" mask-type="alpha" maskUnits="userSpaceOnUse" x="0" y="0" width="72" height="72">
<path fill-rule="evenodd" clip-rule="evenodd" d="M36 72C55.8823 72 72 55.8823 72 36C72 16.1177 55.8823 0 36 0C16.1177 0 0 16.1177 0 36C0 55.8823 16.1177 72 36 72Z" fill="white"/>
</mask>
<g mask="url(#mask0)">
<rect x="-18" y="-18" width="108" height="108" fill="#FFDC48"/>
<g filter="url(#filter0_d)">
<path fill-rule="evenodd" clip-rule="evenodd" d="M36.5085 20.8979C35.8196 23.0187 35.5897 25.3313 35.9222 27.6964C36.9869 35.2725 43.4478 40.7393 50.7894 40.6377C49.0886 45.873 44.59 49.9402 38.8436 50.7478C30.7693 51.8825 23.2892 46.1521 22.1362 37.9484C20.9833 29.7448 26.5941 22.1745 34.6684 21.0397C35.2861 20.9529 35.9004 20.9063 36.5085 20.8979Z" fill="#00B8E9"/>
<path fill-rule="evenodd" clip-rule="evenodd" d="M36.5085 20.8979C35.8196 23.0187 35.5897 25.3313 35.9222 27.6964C36.9869 35.2725 43.4478 40.7393 50.7894 40.6377C49.0886 45.873 44.59 49.9402 38.8436 50.7478C30.7693 51.8825 23.2892 46.1521 22.1362 37.9484C20.9833 29.7448 26.5941 22.1745 34.6684 21.0397C35.2861 20.9529 35.9004 20.9063 36.5085 20.8979Z" fill="url(#paint0_linear)"/>
</g>
</g>
<defs>
<filter id="filter0_d" x="16.9861" y="15.8979" width="38.8033" height="39.9932" filterUnits="userSpaceOnUse" color-interpolation-filters="sRGB">
<feFlood flood-opacity="0" result="BackgroundImageFix"/>
<feColorMatrix in="SourceAlpha" type="matrix" values="0 0 0 0 0 0 0 0 0 0 0 0 0 0 0 0 0 0 127 0" result="hardAlpha"/>
<feOffset/>
<feGaussianBlur stdDeviation="2.5"/>
<feColorMatrix type="matrix" values="0 0 0 0 0 0 0 0 0 0.721569 0 0 0 0 0.913725 0 0 0 0.25 0"/>
<feBlend mode="normal" in2="BackgroundImageFix" result="effect1_dropShadow"/>
<feBlend mode="normal" in="SourceGraphic" in2="effect1_dropShadow" result="shape"/>
</filter>
<linearGradient id="paint0_linear" x1="13.9378" y1="29.9103" x2="29.7674" y2="13.7649" gradientUnits="userSpaceOnUse">
<stop stop-color="#00B8E9"/>
<stop offset="1" stop-color="white"/>
</linearGradient>
</defs>
</svg>
